#Comment line ignore any data following # character 
#Hierarchical Translation and Rotation (.htr) file 
[Header]	
#Header keywords are followed by a single value 
FileType HTR		#Single word string
DataType HTRS		#Translation followed by rotation and scale data
FileVersion 1		#integer
NumSegments 84		#integer
NumFrames 2		#integer
DataFrameRate 30		#integer, data frame rate in this file
EulerRotationOrder ZYX
CalibrationUnits mm
RotationUnits Degrees
GlobalAxisofGravity Y
BoneLengthAxis Y
ScaleFactor 1.00
[SegmentNames&Hierarchy]
#CHILD	PARENT
MASTER GLOBAL
root MASTER
chest root
L_mid_tent01 root
R_mid_tent01 root
spine01 root
Bip01_Neck chest
L_humerus chest
R_humerus chest
weapon_bone chest
Bip01_Head Bip01_Neck
eye_left_bone Bip01_Head
eye_right_bone Bip01_Head
L_forearm L_humerus
L_front_hand L_forearm
L_weapon_bone L_forearm
L_front_hand01_01 L_front_hand
L_front_hand02_01 L_front_hand
L_front_hand03_01 L_front_hand
L_front_hand01_02 L_front_hand01_01
L_front_hand02_02 L_front_hand02_01
L_front_hand03_02 L_front_hand03_01
R_forearm R_humerus
R_front_hand R_forearm
R_weapon_bone R_forearm
R_front_hand01_01 R_front_hand
R_front_hand02_01 R_front_hand
R_front_hand03_01 R_front_hand
R_front_hand01_02 R_front_hand01_01
R_front_hand02_02 R_front_hand02_01
R_front_hand03_02 R_front_hand03_01
null_rope01_connect L_mid_tent01
Rope1_Seg01 null_rope01_connect
Rope1_Seg02 Rope1_Seg01
Rope1_Seg03 Rope1_Seg02
Rope1_Seg04 Rope1_Seg03
Rope1_Seg05 Rope1_Seg04
Rope1_Seg06 Rope1_Seg05
Rope1_Seg07 Rope1_Seg06
Rope1_Seg09 Rope1_Seg07
L_mid_hand01 Rope1_Seg09
L_mid_hand02 Rope1_Seg09
L_mid_hand03 Rope1_Seg09
null_rope02_connect R_mid_tent01
Rope2_Seg01 null_rope02_connect
Rope2_Seg02 Rope2_Seg01
Rope2_Seg03 Rope2_Seg02
Rope2_Seg04 Rope2_Seg03
Rope2_Seg05 Rope2_Seg04
Rope2_Seg06 Rope2_Seg05
Rope2_Seg07 Rope2_Seg06
Rope2_Seg09 Rope2_Seg07
R_mid_hand01 Rope2_Seg09
R_mid_hand02 Rope2_Seg09
R_mid_hand03 Rope2_Seg09
spine02 spine01
spine03 spine02
pelvis spine03
null_rope03_connect pelvis
null_rope04_connect pelvis
Rope3_Seg01 null_rope03_connect
Rope3_Seg02 Rope3_Seg01
Rope3_Seg03 Rope3_Seg02
Rope3_Seg04 Rope3_Seg03
Rope3_Seg05 Rope3_Seg04
Rope3_Seg06 Rope3_Seg05
Rope3_Seg07 Rope3_Seg06
Rope3_Seg08 Rope3_Seg07
Rope3_Seg09 Rope3_Seg08
R_rear_hand01 Rope3_Seg09
R_rear_hand02 Rope3_Seg09
R_rear_hand03 Rope3_Seg09
Rope4_Seg01 null_rope04_connect
Rope4_Seg02 Rope4_Seg01
Rope4_Seg03 Rope4_Seg02
Rope4_Seg04 Rope4_Seg03
Rope4_Seg05 Rope4_Seg04
Rope4_Seg06 Rope4_Seg05
Rope4_Seg07 Rope4_Seg06
Rope4_Seg08 Rope4_Seg07
Rope4_Seg09 Rope4_Seg08
L_rear_hand01 Rope4_Seg09
L_rear_hand02 Rope4_Seg09
L_rear_hand03 Rope4_Seg09
[BasePosition]
#SegmentName Tx, Ty, Tz, Rx, Ry, Rz, BoneLength
MASTER 0.000000 0.000000 0.000000 -90.000000 0.000000 0.000000 10.000000 
root 0.000000 0.000000 0.000000 0.000000 0.000000 0.000000 10.000000 
chest 0.000000 0.000000 0.000000 0.000000 0.000000 0.000000 10.000000 
L_mid_tent01 0.000000 0.000000 0.000000 0.000000 0.000000 0.000000 10.000000 
R_mid_tent01 0.000000 0.000000 0.000000 0.000000 0.000000 0.000000 10.000000 
spine01 0.000000 0.000000 0.000000 0.000000 0.000000 0.000000 10.000000 
Bip01_Neck 0.000000 0.000000 0.000000 0.000000 0.000000 0.000000 10.000000 
L_humerus 0.000000 0.000000 0.000000 0.000000 0.000000 0.000000 10.000000 
R_humerus 0.000000 0.000000 0.000000 0.000000 0.000000 0.000000 10.000000 
weapon_bone 0.000000 0.000000 0.000000 0.000000 0.000000 0.000000 10.000000 
Bip01_Head 0.000000 0.000000 0.000000 0.000000 0.000000 0.000000 10.000000 
eye_left_bone 0.000000 0.000000 0.000000 0.000000 0.000000 0.000000 10.000000 
eye_right_bone 0.000000 0.000000 0.000000 0.000000 0.000000 0.000000 10.000000 
L_forearm 0.000000 0.000000 0.000000 0.000000 0.000000 0.000000 10.000000 
L_front_hand 0.000000 0.000000 0.000000 0.000000 0.000000 0.000000 10.000000 
L_weapon_bone 0.000000 0.000000 0.000000 0.000000 0.000000 0.000000 10.000000 
L_front_hand01_01 0.000000 0.000000 0.000000 0.000000 0.000000 0.000000 10.000000 
L_front_hand02_01 0.000000 0.000000 0.000000 0.000000 0.000000 0.000000 10.000000 
L_front_hand03_01 0.000000 0.000000 0.000000 0.000000 0.000000 0.000000 10.000000 
L_front_hand01_02 0.000000 0.000000 0.000000 0.000000 0.000000 0.000000 10.000000 
L_front_hand02_02 0.000000 0.000000 0.000000 0.000000 0.000000 0.000000 10.000000 
L_front_hand03_02 0.000000 0.000000 0.000000 0.000000 0.000000 0.000000 10.000000 
R_forearm 0.000000 0.000000 0.000000 0.000000 0.000000 0.000000 10.000000 
R_front_hand 0.000000 0.000000 0.000000 0.000000 0.000000 0.000000 10.000000 
R_weapon_bone 0.000000 0.000000 0.000000 0.000000 0.000000 0.000000 10.000000 
R_front_hand01_01 0.000000 0.000000 0.000000 0.000000 0.000000 0.000000 10.000000 
R_front_hand02_01 0.000000 0.000000 0.000000 0.000000 0.000000 0.000000 10.000000 
R_front_hand03_01 0.000000 0.000000 0.000000 0.000000 0.000000 0.000000 10.000000 
R_front_hand01_02 0.000000 0.000000 0.000000 0.000000 0.000000 0.000000 10.000000 
R_front_hand02_02 0.000000 0.000000 0.000000 0.000000 0.000000 0.000000 10.000000 
R_front_hand03_02 0.000000 0.000000 0.000000 0.000000 0.000000 0.000000 10.000000 
null_rope01_connect 0.000000 0.000000 0.000000 0.000000 0.000000 0.000000 10.000000 
Rope1_Seg01 0.000000 0.000000 0.000000 0.000000 0.000000 0.000000 10.000000 
Rope1_Seg02 0.000000 0.000000 0.000000 0.000000 0.000000 0.000000 10.000000 
Rope1_Seg03 0.000000 0.000000 0.000000 0.000000 0.000000 0.000000 10.000000 
Rope1_Seg04 0.000000 0.000000 0.000000 0.000000 0.000000 0.000000 10.000000 
Rope1_Seg05 0.000000 0.000000 0.000000 0.000000 0.000000 0.000000 10.000000 
Rope1_Seg06 0.000000 0.000000 0.000000 0.000000 0.000000 0.000000 10.000000 
Rope1_Seg07 0.000000 0.000000 0.000000 0.000000 0.000000 0.000000 10.000000 
Rope1_Seg09 0.000000 0.000000 0.000000 0.000000 0.000000 0.000000 10.000000 
L_mid_hand01 0.000000 0.000000 0.000000 0.000000 0.000000 0.000000 10.000000 
L_mid_hand02 0.000000 0.000000 0.000000 0.000000 0.000000 0.000000 10.000000 
L_mid_hand03 0.000000 0.000000 0.000000 0.000000 0.000000 0.000000 10.000000 
null_rope02_connect 0.000000 0.000000 0.000000 0.000000 0.000000 0.000000 10.000000 
Rope2_Seg01 0.000000 0.000000 0.000000 0.000000 0.000000 0.000000 10.000000 
Rope2_Seg02 0.000000 0.000000 0.000000 0.000000 0.000000 0.000000 10.000000 
Rope2_Seg03 0.000000 0.000000 0.000000 0.000000 0.000000 0.000000 10.000000 
Rope2_Seg04 0.000000 0.000000 0.000000 0.000000 0.000000 0.000000 10.000000 
Rope2_Seg05 0.000000 0.000000 0.000000 0.000000 0.000000 0.000000 10.000000 
Rope2_Seg06 0.000000 0.000000 0.000000 0.000000 0.000000 0.000000 10.000000 
Rope2_Seg07 0.000000 0.000000 0.000000 0.000000 0.000000 0.000000 10.000000 
Rope2_Seg09 0.000000 0.000000 0.000000 0.000000 0.000000 0.000000 10.000000 
R_mid_hand01 0.000000 0.000000 0.000000 0.000000 0.000000 0.000000 10.000000 
R_mid_hand02 0.000000 0.000000 0.000000 0.000000 0.000000 0.000000 10.000000 
R_mid_hand03 0.000000 0.000000 0.000000 0.000000 0.000000 0.000000 10.000000 
spine02 0.000000 0.000000 0.000000 0.000000 0.000000 0.000000 10.000000 
spine03 0.000000 0.000000 0.000000 0.000000 0.000000 0.000000 10.000000 
pelvis 0.000000 0.000000 0.000000 0.000000 0.000000 0.000000 10.000000 
null_rope03_connect 0.000000 0.000000 0.000000 0.000000 0.000000 0.000000 10.000000 
null_rope04_connect 0.000000 0.000000 0.000000 0.000000 0.000000 0.000000 10.000000 
Rope3_Seg01 0.000000 0.000000 0.000000 0.000000 0.000000 0.000000 10.000000 
Rope3_Seg02 0.000000 0.000000 0.000000 0.000000 0.000000 0.000000 10.000000 
Rope3_Seg03 0.000000 0.000000 0.000000 0.000000 0.000000 0.000000 10.000000 
Rope3_Seg04 0.000000 0.000000 0.000000 0.000000 0.000000 0.000000 10.000000 
Rope3_Seg05 0.000000 0.000000 0.000000 0.000000 0.000000 0.000000 10.000000 
Rope3_Seg06 0.000000 0.000000 0.000000 0.000000 0.000000 0.000000 10.000000 
Rope3_Seg07 0.000000 0.000000 0.000000 0.000000 0.000000 0.000000 10.000000 
Rope3_Seg08 0.000000 0.000000 0.000000 0.000000 0.000000 0.000000 10.000000 
Rope3_Seg09 0.000000 0.000000 0.000000 0.000000 0.000000 0.000000 10.000000 
R_rear_hand01 0.000000 0.000000 0.000000 0.000000 0.000000 0.000000 10.000000 
R_rear_hand02 0.000000 0.000000 0.000000 0.000000 0.000000 0.000000 10.000000 
R_rear_hand03 0.000000 0.000000 0.000000 0.000000 0.000000 0.000000 10.000000 
Rope4_Seg01 0.000000 0.000000 0.000000 0.000000 0.000000 0.000000 10.000000 
Rope4_Seg02 0.000000 0.000000 0.000000 0.000000 0.000000 0.000000 10.000000 
Rope4_Seg03 0.000000 0.000000 0.000000 0.000000 0.000000 0.000000 10.000000 
Rope4_Seg04 0.000000 0.000000 0.000000 0.000000 0.000000 0.000000 10.000000 
Rope4_Seg05 0.000000 0.000000 0.000000 0.000000 0.000000 0.000000 10.000000 
Rope4_Seg06 0.000000 0.000000 0.000000 0.000000 0.000000 0.000000 10.000000 
Rope4_Seg07 0.000000 0.000000 0.000000 0.000000 0.000000 0.000000 10.000000 
Rope4_Seg08 0.000000 0.000000 0.000000 0.000000 0.000000 0.000000 10.000000 
Rope4_Seg09 0.000000 0.000000 0.000000 0.000000 0.000000 0.000000 10.000000 
L_rear_hand01 0.000000 0.000000 0.000000 0.000000 0.000000 0.000000 10.000000 
L_rear_hand02 0.000000 0.000000 0.000000 0.000000 0.000000 0.000000 10.000000 
L_rear_hand03 0.000000 0.000000 0.000000 0.000000 0.000000 0.000000 10.000000 
#Beginning of Data. Separated by tabs
#Fr	Tx	Ty	Tz	Rx	Ry	Rz	SF
[MASTER]
29 -2748.448975 2536.208984 1526.414185 0.001660 0.001660 0.001660 4039.340088
30 -2746.061279 2535.619873 1526.642334 0.001660 0.001660 0.001660 4037.432129
[root]
29 20.013123 -118.897095 462.015350 -166.175995 -12.962084 -69.704643 477.488495
30 20.013123 -118.897095 462.015350 -166.443497 -12.902927 -69.546349 477.488495
[chest]
29 -84.512650 -34.090519 0.000000 -40.316914 -25.923008 -177.900543 91.129311
30 -84.512650 -34.090519 0.000000 -40.559750 -26.174969 -177.581467 91.129311
[L_mid_tent01]
29 27.298983 22.179029 -249.918762 -7.918769 14.689782 48.682323 252.381729
30 27.298979 22.179026 -249.918762 -7.465487 14.745172 50.279167 252.381729
[R_mid_tent01]
29 23.228794 24.509907 226.238495 179.998703 -21.043718 29.434704 228.744751
30 23.228794 24.509907 226.238495 179.955322 -20.966860 29.693869 228.744751
[spine01]
29 -0.361383 -0.195265 0.000000 0.001956 0.001298 22.853567 0.410763
30 -0.361383 -0.195265 0.000000 0.001955 0.001299 22.823286 0.410763
[Bip01_Neck]
29 165.484543 71.581718 0.000119 176.643677 -1.657967 43.431911 180.302734
30 165.484543 71.581718 0.000119 176.643677 -1.657967 43.431911 180.302734
[L_humerus]
29 -13.983130 -135.272980 -120.471481 164.583908 58.102226 -102.909836 181.680161
30 -13.983130 -135.272980 -120.471481 163.986008 59.027534 -103.595757 181.680161
[R_humerus]
29 -13.983309 -135.273102 125.287651 -139.069656 -35.797436 -143.085281 184.909012
30 -13.983309 -135.273102 125.287651 -138.733322 -37.250378 -142.835571 184.909012
[weapon_bone]
29 235.964890 -300.705902 0.000000 0.000000 -89.951546 -128.212341 382.234833
30 235.964890 -300.705902 0.000000 0.000000 -89.951546 -128.212341 382.234833
[Bip01_Head]
29 213.424561 185.770721 11.066505 -7.904781 3.930341 -43.853287 283.166504
30 213.405289 185.824356 10.374139 -6.417407 4.333911 -43.846733 283.160980
[eye_left_bone]
29 -24.626970 125.451866 -64.772606 0.000000 -90.000000 -99.840431 143.318359
30 -24.626970 125.451866 -64.772606 0.000000 -90.000000 -99.840431 143.318359
[eye_right_bone]
29 -24.626970 125.451866 64.327362 0.000000 -89.965736 80.156380 143.117676
30 -24.626970 125.451866 64.327362 0.000000 -89.965736 80.156380 143.117676
[L_forearm]
29 322.776093 0.000000 -0.000119 0.000210 -0.002338 -100.253311 322.776093
30 322.776093 0.000000 -0.000119 0.000216 -0.002337 -100.578064 322.776093
[L_front_hand]
29 241.149185 -0.042021 -3.300071 -65.422241 -1.835781 -27.425005 241.171753
30 241.149185 -0.042021 -3.300071 -105.490532 -1.835782 -27.423632 241.171753
[L_weapon_bone]
29 156.183838 0.000000 0.000000 0.000014 0.000007 0.000001 156.183838
30 156.183838 0.000000 0.000000 0.000014 0.000007 0.000001 156.183838
[L_front_hand01_01]
29 86.095154 20.947098 -0.655860 -0.366594 -0.477154 75.385582 88.609184
30 86.095154 20.947098 -0.655860 -0.366594 -0.477154 75.385574 88.609184
[L_front_hand02_01]
29 86.935165 -11.437475 24.513514 154.399796 -59.883835 -61.369587 91.046425
30 86.935165 -11.437475 24.513514 154.399796 -59.883835 -61.369587 91.046425
[L_front_hand03_01]
29 86.637497 -14.123976 -20.424902 -153.913849 58.118122 -62.702866 90.126129
30 86.637497 -14.123976 -20.424902 -153.913849 58.118122 -62.702866 90.126129
[L_front_hand01_02]
29 71.020905 -0.000179 0.000030 0.000299 0.002328 -75.372566 71.020905
30 71.020905 -0.000179 0.000030 0.000022 -0.002347 -91.065300 71.020905
[L_front_hand02_02]
29 71.020927 -0.000119 0.000060 0.000299 0.002328 -75.372566 71.020927
30 71.020927 -0.000119 0.000060 0.000022 -0.002347 -91.065300 71.020927
[L_front_hand03_02]
29 71.020905 -0.000060 0.000060 0.000299 0.002328 -75.372566 71.020905
30 71.020905 -0.000060 0.000060 0.000022 -0.002347 -91.065300 71.020905
[R_forearm]
29 322.776428 -0.000060 0.000030 0.210460 0.030246 -98.821381 322.776428
30 322.776428 -0.000060 0.000030 0.211440 0.032103 -99.149590 322.776428
[R_front_hand]
29 238.847015 -0.006795 2.210259 -2.635856 -10.645462 -26.312506 238.857239
30 238.847015 -0.006795 2.210259 -52.932327 -10.647001 -26.313354 238.857239
[R_weapon_bone]
29 155.664093 0.002503 -0.000030 0.003487 0.001180 -90.988930 155.664078
30 155.664093 0.002503 -0.000030 0.003487 0.001180 -90.988930 155.664078
[R_front_hand01_01]
29 87.624611 14.231146 22.918642 -154.633499 -59.950619 61.746044 91.683487
30 87.624611 14.231146 22.918642 -154.633499 -59.950619 61.746044 91.683487
[R_front_hand02_01]
29 89.356956 14.367283 -19.491137 154.602661 58.302849 63.744389 92.579636
30 89.356956 14.367283 -19.491137 154.602661 58.302849 63.744389 92.579636
[R_front_hand03_01]
29 87.286232 -22.307278 -0.143439 0.162155 -0.423168 -75.767921 90.091743
30 87.286232 -22.307278 -0.143439 0.162155 -0.423168 -75.767921 90.091743
[R_front_hand01_02]
29 71.020905 0.000060 0.000119 0.002323 -0.000334 106.381554 71.020905
30 71.020905 0.000060 0.000119 0.002347 -0.000022 91.067101 71.020905
[R_front_hand02_02]
29 71.020844 -0.000030 -0.000119 0.002323 -0.000334 106.381554 71.020836
30 71.020844 -0.000030 -0.000119 0.002347 -0.000022 91.067101 71.020836
[R_front_hand03_02]
29 71.020905 0.000000 0.000030 0.002323 -0.000334 106.381554 71.020905
30 71.020905 0.000000 0.000030 0.002347 -0.000022 91.067101 71.020905
[null_rope01_connect]
29 328.732483 0.000000 -0.000238 -163.613937 -3.376198 -120.602921 328.732483
30 328.732483 0.000000 -0.000238 -163.699646 -3.259030 -121.966324 328.732483
[Rope1_Seg01]
29 -0.000019 -0.000019 0.000153 15.553476 -57.860638 96.307236 0.000155
30 -0.000020 -0.000018 0.000153 17.177773 -57.930237 94.437149 0.000155
[Rope1_Seg02]
29 139.999863 -0.000179 0.000000 -0.087936 3.031804 2.785007 139.999863
30 139.999863 -0.000179 0.000000 -0.117267 3.092152 2.927733 139.999863
[Rope1_Seg03]
29 139.999924 0.000060 -0.000060 -0.055554 4.855785 4.490230 139.999924
30 139.999924 0.000060 -0.000060 -0.091953 4.942009 4.716659 139.999924
[Rope1_Seg04]
29 139.999924 -0.000060 -0.000119 0.492695 10.778904 10.305232 139.999924
30 139.999924 -0.000060 -0.000119 0.502478 10.869948 10.791270 139.999924
[Rope1_Seg05]
29 139.999832 0.000119 -0.000060 2.997866 19.912186 20.061426 139.999832
30 139.999832 0.000119 -0.000060 3.126219 19.549309 20.409973 139.999832
[Rope1_Seg06]
29 139.999954 0.000119 -0.000060 0.068666 5.459645 3.897405 139.999954
30 139.999954 0.000119 -0.000060 0.101684 5.547484 3.597004 139.999954
[Rope1_Seg07]
29 139.999985 0.000060 0.000000 0.222667 8.627927 7.070713 139.999985
30 139.999985 0.000060 0.000000 0.222657 8.651858 6.723058 139.999985
[Rope1_Seg09]
29 121.602913 0.000119 -0.000089 -89.793175 -1.359789 0.847147 121.602913
30 121.602913 0.000119 -0.000089 -89.793175 -1.359789 0.847147 121.602913
[L_mid_hand01]
29 103.859421 1.038730 8.195221 130.544373 -67.584518 -38.866947 104.187431
30 103.859421 1.038730 8.195221 130.544373 -67.584534 -38.866943 104.187431
[L_mid_hand02]
29 105.572853 -4.139662 -10.864139 -168.923172 43.409309 -73.498886 106.211075
30 105.572853 -4.139662 -10.864139 -168.923172 43.409328 -73.498909 106.211075
[L_mid_hand03]
29 104.641464 17.579376 -3.913581 -6.012626 17.808172 74.893661 106.179977
30 104.641464 17.579376 -3.913581 -6.012625 17.808174 74.893669 106.179977
[null_rope02_connect]
29 328.732849 0.000179 -0.000119 -14.789858 19.354877 91.622658 328.732849
30 328.732849 0.000179 -0.000119 -14.679090 19.115004 91.868523 328.732849
[Rope2_Seg01]
29 0.000058 0.000212 0.000078 76.305504 77.016273 12.304281 0.000233
30 0.000058 0.000215 0.000080 77.506805 78.049881 13.389530 0.000237
[Rope2_Seg02]
29 139.999741 -0.000060 -0.000119 -0.986487 13.908129 -5.317197 139.999756
30 139.999741 -0.000060 -0.000119 -1.096242 13.885211 -4.836559 139.999756
[Rope2_Seg03]
29 140.000107 0.000030 0.000000 -15.973806 40.907524 -15.896857 140.000107
30 140.000107 0.000030 0.000000 -18.176979 40.770733 -13.259371 140.000107
[Rope2_Seg04]
29 139.999802 0.000000 -0.000060 -151.642868 42.135426 -7.438710 139.999802
30 139.999802 0.000000 -0.000060 -139.551849 42.013935 -2.983107 139.999802
[Rope2_Seg05]
29 139.999985 -0.000060 0.000119 -20.813587 6.626953 5.495822 139.999985
30 139.999985 -0.000060 0.000119 -26.988251 8.591673 6.603720 139.999985
[Rope2_Seg06]
29 139.999893 -0.000030 -0.000119 -17.980850 4.608529 4.721354 139.999893
30 139.999893 -0.000030 -0.000119 -18.174173 3.414876 5.596408 139.999893
[Rope2_Seg07]
29 139.999893 0.000060 -0.000060 -6.148915 -0.360970 2.656194 139.999893
30 139.999893 0.000060 -0.000060 -5.801949 -0.722204 2.821632 139.999893
[Rope2_Seg09]
29 121.338966 0.000089 -0.000060 33.793236 -1.359788 -0.847141 121.338966
30 121.338966 0.000089 -0.000060 33.793236 -1.359788 -0.847141 121.338966
[R_mid_hand01]
29 104.680779 11.144459 -10.335981 -21.077940 43.559662 63.514484 105.778534
30 104.680779 11.144459 -10.335981 -18.585411 44.487877 67.094765 105.778534
[R_mid_hand02]
29 104.070427 2.443552 8.231699 56.113014 -63.580826 31.562031 104.424065
30 104.070427 2.443552 8.231699 52.755058 -65.811378 35.278732 104.424065
[R_mid_hand03]
29 106.028137 -11.221827 -5.996406 -175.658295 15.220738 -71.161598 106.788818
30 106.028137 -11.221827 -5.996406 -176.406250 15.411086 -73.996979 106.788818
[spine02]
29 129.756927 0.001550 0.000119 -0.579633 -4.020040 0.346975 129.756927
30 129.756927 0.001550 0.000119 -0.548290 -4.025591 -0.122593 129.756927
[spine03]
29 78.613968 0.081709 -4.898972 1.325442 4.062851 8.211750 78.766502
30 78.613960 0.081707 -4.898971 1.347223 4.056055 8.517707 78.766495
[pelvis]
29 169.435242 0.051022 0.000000 -0.003832 -0.191364 -2.634613 169.435257
30 169.435242 0.051022 0.000000 -0.007320 -0.191387 -2.026187 169.435257
[null_rope03_connect]
29 -1.257226 -2.466202 137.391083 -172.675507 -17.606474 -97.982246 137.418976
30 -1.257226 -2.466202 137.391083 -172.688278 -17.387304 -98.237839 137.418976
[null_rope04_connect]
29 -1.259640 -2.480268 -137.844437 -172.675507 -17.606474 -97.982246 137.872513
30 -1.259640 -2.480268 -137.844437 -172.688278 -17.387304 -98.237839 137.872513
[Rope3_Seg01]
29 0.000000 0.000000 0.000000 32.506374 28.463009 -46.785046 0.000000
30 0.000000 0.000000 0.000000 33.446026 29.267761 -45.994614 0.000000
[Rope3_Seg02]
29 139.999924 -0.000119 0.000060 5.171497 3.159220 -13.652201 139.999924
30 139.999924 -0.000119 0.000060 5.097665 2.952806 -12.854607 139.999924
[Rope3_Seg03]
29 139.999924 -0.000119 0.000119 1.852165 4.229194 -42.627041 139.999924
30 139.999924 -0.000119 0.000119 2.544890 4.139143 -41.906624 139.999924
[Rope3_Seg04]
29 139.999924 0.000119 0.000000 -15.549916 0.700023 -43.203197 139.999924
30 139.999924 0.000119 0.000000 -16.024101 0.342164 -45.938782 139.999924
[Rope3_Seg05]
29 139.999924 -0.000238 0.000060 -20.995279 9.927761 -16.883553 139.999924
30 139.999924 -0.000238 0.000060 -21.917841 10.389009 -17.059145 139.999924
[Rope3_Seg06]
29 139.999893 -0.000119 -0.000060 -18.075111 14.034382 -8.596006 139.999893
30 139.999893 -0.000119 -0.000060 -16.385612 13.090076 -7.364391 139.999893
[Rope3_Seg07]
29 139.999771 0.000060 -0.000119 -7.750931 8.269583 -2.940257 139.999771
30 139.999771 0.000060 -0.000119 -6.918016 7.295374 -2.654302 139.999771
[Rope3_Seg08]
29 139.999985 -0.000060 0.000000 -3.336313 4.599602 -1.018736 139.999985
30 139.999985 -0.000060 0.000000 -3.047783 4.092797 -0.983528 139.999985
[Rope3_Seg09]
29 90.185997 -0.000179 -0.000060 89.793228 -1.359877 -0.847183 90.185997
30 90.185997 -0.000179 -0.000060 89.793228 -1.359877 -0.847183 90.185997
[R_rear_hand01]
29 103.366196 -6.073594 -10.757982 174.967010 -15.430780 -71.532425 104.101845
30 103.366196 -6.073594 -10.757982 173.857788 -15.303976 -73.582954 104.101845
[R_rear_hand02]
29 100.509819 12.039542 -7.992327 -16.360666 35.627872 66.274094 101.543350
30 100.509819 12.039542 -7.992327 -14.552642 36.319771 69.354713 101.543350
[R_rear_hand03]
29 101.539970 5.215704 5.435467 75.232666 -67.112564 17.511591 101.819031
30 101.539970 5.215704 5.435467 73.490227 -69.598824 19.389961 101.819031
[Rope4_Seg01]
29 -0.000019 -0.000155 -0.000153 -112.109337 -15.962589 -20.983150 0.000219
30 -0.000019 -0.000161 -0.000153 -116.381943 -16.636902 -21.638243 0.000223
[Rope4_Seg02]
29 139.999985 0.000060 0.000119 -75.323502 8.845325 -23.154741 139.999985
30 139.999985 0.000060 0.000119 -70.449821 10.245447 -22.274809 139.999985
[Rope4_Seg03]
29 139.999924 0.000000 -0.000238 26.562372 82.021049 42.341885 139.999924
30 139.999924 0.000000 -0.000238 15.688349 82.221832 30.776207 139.999924
[Rope4_Seg04]
29 139.999985 0.000000 0.000119 3.187158 20.455557 6.073973 139.999985
30 139.999985 0.000000 0.000119 3.380179 21.051769 6.031741 139.999985
[Rope4_Seg05]
29 139.999802 -0.000060 -0.000119 2.459308 8.806323 1.634893 139.999802
30 139.999802 -0.000060 -0.000119 2.282993 8.966469 1.947184 139.999802
[Rope4_Seg06]
29 139.999924 0.000000 0.000060 5.638993 11.459803 1.418937 139.999924
30 139.999924 0.000000 0.000060 4.851926 11.230213 1.951313 139.999924
[Rope4_Seg07]
29 139.999802 0.000000 0.000000 7.955593 9.173703 0.422117 139.999802
30 139.999802 0.000000 0.000000 6.830735 8.784743 0.835056 139.999802
[Rope4_Seg08]
29 139.999924 0.000000 0.000119 7.713637 6.085145 -0.565602 139.999924
30 139.999924 0.000000 0.000119 6.311450 5.817214 -0.143535 139.999924
[Rope4_Seg09]
29 90.185791 0.000060 0.000060 -135.617828 2.228885 0.850567 90.185791
30 90.185791 0.000060 0.000060 -135.617828 2.228885 0.850567 90.185791
[L_rear_hand01]
29 101.696655 -8.392275 -7.654577 -13.120158 -36.794422 108.245644 102.329041
30 101.696655 -8.392275 -7.654577 -12.874827 -36.868488 107.832764 102.329041
[L_rear_hand02]
29 102.726799 -1.568258 5.773216 71.814781 71.499916 158.834518 102.900848
30 102.726799 -1.568258 5.773216 71.484589 71.816643 158.486160 102.900848
[L_rear_hand03]
29 104.552910 9.721220 -10.420293 -177.558807 -24.551933 -106.459061 105.519653
30 104.552910 9.721220 -10.420293 -177.714203 -24.565960 -106.089043 105.519653
